<svg xmlns="http://www.w3.org/2000/svg" xmlns:xlink="http://www.w3.org/1999/xlink" version="1.1" id="Layer_1" x="0px" y="0px" viewBox="0 0 1948.5 1299" style="enable-background:new 0 0 1948.5 1299;" xml:space="preserve">
<style type="text/css">
	.st0{fill:#ffffff;}
</style>
<g>
	<g>
		<g>
			<g>
				
					<ellipse transform="matrix(0.9825 -0.186 0.186 0.9825 -82.0404 196.9194)" class="st0" cx="1008.26" cy="535.61" rx="9.38" ry="9.38" fill="#ffffff"/>
			</g>
			<g>
				<path class="st0" d="M828.91,784.15c2.23,1.52,2.8,4.56,1.29,6.79c-1.52,2.23-4.56,2.8-6.79,1.29c-2.23-1.52-2.8-4.56-1.29-6.79      C823.65,783.21,826.69,782.63,828.91,784.15z" fill="#ffffff"/>
			</g>
			<g>
				<path class="st0" d="M1024.54,509.36c-6.55-4.15-14.55-5.26-21.94-3.05c-7.4,2.21-13.47,7.51-16.67,14.55      c-21.27,46.84-77.96,162.89-147.5,235.44l0.01-54.76c0-7.44,4.13-14.14,10.76-17.5l4.5-2.27c5.02-2.54,8.3-7.6,8.55-13.23      l8.38-184.1c0.17-3.78-1.26-7.48-3.93-10.16c-2.67-2.68-6.37-4.13-10.15-3.97l-24.36,1.03c-7.64,0.32-13.63,6.56-13.65,14.2      l-0.68,290.53l-0.08,0.07c-0.52,0.47-1.05,0.94-1.57,1.4c-5.64,4.95-6.69,13.86-2.31,19.48c1.4,1.8,3.25,3.23,5.33,4.15      c1.5,0.66,2.39,2.25,2.24,3.97c-1.93,21-17.19,32.12-17.84,32.58c-1.31,0.93-2.27,2.22-2.79,3.73c-0.8,2.32-0.43,4.89,0.98,6.89      c2.43,3.43,7.2,4.25,10.63,1.83c1.06-0.75,25.1-18.11,24.47-50.58c-0.03-1.68,0.75-3.29,2.08-4.3      c29.6-22.37,89.44-72.63,139.86-146.61c21.36-31.34,41.03-66.94,56-106.46C1039.53,529.93,1035.19,516.1,1024.54,509.36z       M861.86,479.11c1.34,1.35,2.03,3.13,1.95,5.03l-8.38,184.1c-0.14,3.16-1.99,6.01-4.81,7.44l-4.5,2.27      c-0.31,0.16-0.61,0.32-0.91,0.48c-2.14,1.19-4.76-0.34-4.69-2.79l5.37-193.63c0.07-2.49,2.05-4.5,4.54-4.61l6.41-0.27      C858.74,477.06,860.52,477.76,861.86,479.11z M1028.48,539.82C978.82,671,876.55,758.38,834.89,789.86      c-1.05,0.8-1.96,1.75-2.69,2.82c-1.4,2.05-2.16,4.52-2.11,7.06c0.56,28.91-20.67,44.23-21.58,44.86l0,0      c-0.36,0.25-0.86,0.17-1.11-0.19c-0.21-0.3-0.14-0.61-0.1-0.73c0.05-0.16,0.15-0.29,0.3-0.39c0.75-0.54,18.47-13.43,20.68-37.52      c0.43-4.64-2.1-9-6.29-10.84c-1.07-0.47-1.98-1.18-2.7-2.1c-2.2-2.81-1.53-7.54,1.43-10.14c0.55-0.48,1.1-0.98,1.65-1.47      l0.44-0.39c1.19-1.07,1.89-2.62,1.89-4.23l0.68-291.04c0.01-3.98,3.13-7.23,7.11-7.4l6.05-0.26l-5.93,213.83      c0,0.14,0,0.28,0.01,0.42c0.08,0.92,0.08,1.84-0.16,2.73c-0.56,2.14-0.85,4.37-0.85,6.66l-0.01,57.53      c0,2.41,1.49,4.55,3.78,5.38c2.15,0.78,4.56,0.11,6.15-1.53c71.12-73.19,129.02-191.68,150.62-239.24      c2.37-5.23,6.9-9.18,12.41-10.83c5.5-1.64,11.45-0.81,16.34,2.28C1028.81,520.15,1032,530.53,1028.48,539.82z" fill="#ffffff"/>
			</g>
		</g>
		<g>
			
				<ellipse transform="matrix(0.821 -0.5709 0.5709 0.821 -137.5008 632.6023)" class="st0" cx="940.22" cy="535.61" rx="9.38" ry="9.38" fill="#ffffff"/>
		</g>
		<g>
			<path class="st0" d="M1119.56,784.15c-2.23,1.52-2.8,4.56-1.29,6.79c1.52,2.23,4.56,2.8,6.79,1.29c2.23-1.52,2.8-4.56,1.29-6.79     C1124.83,783.21,1121.79,782.63,1119.56,784.15z" fill="#ffffff"/>
		</g>
		<g>
			<path class="st0" d="M1148.01,843.08c-0.28-2.22-1.42-4.11-3.17-5.35c-0.64-0.46-15.91-11.58-17.84-32.58     c-0.16-1.72,0.74-3.31,2.24-3.97c2.08-0.92,3.93-2.35,5.33-4.15c4.39-5.62,3.33-14.53-2.31-19.48c-0.53-0.46-1.05-0.93-1.57-1.4     l-0.08-0.07l-0.68-290.53c-0.02-7.64-6.01-13.88-13.65-14.2l-24.36-1.03c-3.78-0.16-7.48,1.29-10.15,3.97     c-2.67,2.68-4.1,6.38-3.93,10.16l8.38,184.1c0.26,5.62,3.54,10.69,8.55,13.23l4.5,2.27c6.64,3.35,10.76,10.06,10.76,17.5     l0.01,54.76c-39.17-40.87-74.27-95.54-101.25-143.87c-0.94-1.68-3.33-1.74-4.35-0.1c-0.36,0.57-0.71,1.15-1.07,1.72     c-0.49,0.78-0.51,1.76-0.06,2.56c27.57,49.27,63.49,105.01,103.63,146.32c1.59,1.64,4,2.3,6.15,1.53     c2.29-0.83,3.78-2.97,3.78-5.38l-0.01-57.53c0-2.28-0.3-4.51-0.85-6.65c-0.23-0.89-0.24-1.82-0.16-2.74     c0.01-0.14,0.02-0.28,0.01-0.42l-5.93-213.83l6.05,0.26c3.98,0.17,7.1,3.42,7.11,7.4l0.68,291.04c0.01,1.61,0.7,3.15,1.89,4.23     l0.44,0.39c0.55,0.49,1.1,0.99,1.65,1.47c2.96,2.59,3.62,7.32,1.43,10.14c-0.72,0.92-1.63,1.63-2.7,2.1     c-4.19,1.84-6.71,6.2-6.29,10.84c2.21,24.09,19.92,36.98,20.68,37.52c0.14,0.1,0.24,0.23,0.3,0.39c0.04,0.12,0.11,0.42-0.1,0.73     c-0.25,0.36-0.75,0.44-1.11,0.19l0,0c-0.91-0.64-22.14-15.95-21.58-44.86c0.05-2.54-0.71-5-2.11-7.06     c-0.73-1.07-1.63-2.03-2.69-2.82c-28.12-21.25-83.84-67.97-132.37-136.42c-0.75-1.05-2.32-1.03-3.02,0.05     c-0.62,0.95-1.25,1.9-1.87,2.84c-0.42,0.63-0.4,1.45,0.04,2.07c48.91,68.68,104.81,115.54,133.1,136.91     c1.33,1.01,2.11,2.62,2.08,4.3c-0.63,32.47,23.4,49.83,24.47,50.58c3.91,2.76,9.55,1.32,11.5-3.4     C1148,845.62,1148.17,844.34,1148.01,843.08z M1103.27,678.44c-0.3-0.17-0.6-0.33-0.91-0.48l-4.5-2.27     c-2.82-1.43-4.67-4.28-4.81-7.44l-8.38-184.1c-0.09-1.9,0.6-3.69,1.95-5.03c1.34-1.35,3.13-2.04,5.02-1.96l6.41,0.27     c2.49,0.1,4.47,2.12,4.54,4.61l5.37,193.63C1108.03,678.1,1105.41,679.63,1103.27,678.44z" fill="#ffffff"/>
		</g>
		<g>
			<path class="st0" d="M944.95,597.07c0.38-0.71,0.39-1.57,0.01-2.28c-9.22-17.35-17.66-35.68-24.96-54.97     c-3.52-9.29-0.33-19.67,7.59-24.68c4.88-3.09,10.84-3.92,16.34-2.28c5.51,1.65,10.03,5.6,12.41,10.83     c2.9,6.39,6.46,14.05,10.61,22.71c0.88,1.83,3.47,1.86,4.38,0.05c0.37-0.73,0.74-1.47,1.11-2.2c0.34-0.67,0.35-1.48,0.02-2.16     c-3.85-8.05-7.17-15.21-9.9-21.22c-3.2-7.04-9.27-12.34-16.67-14.55c-7.39-2.21-15.39-1.1-21.94,3.05     c-10.64,6.74-14.98,20.56-10.32,32.87c7.57,20,16.36,38.99,25.95,56.94c0.91,1.69,3.34,1.69,4.25,0     C944.19,598.48,944.57,597.77,944.95,597.07z" fill="#ffffff"/>
		</g>
	</g>
	<g>
		<path class="st0" d="M636.51,631.49l4.45,13.71c0.54,1.65,2.07,2.76,3.8,2.76h14.41c3.88,0,5.49,4.96,2.35,7.24l-11.66,8.47    c-1.4,1.02-1.99,2.82-1.45,4.47l4.45,13.71c1.2,3.69-3.02,6.75-6.16,4.47l-11.66-8.47c-1.4-1.02-3.3-1.02-4.7,0l-11.66,8.47    c-3.14,2.28-7.35-0.79-6.16-4.47l4.45-13.71c0.54-1.65-0.05-3.45-1.45-4.47l-11.66-8.47c-3.14-2.28-1.52-7.24,2.35-7.24h14.41    c1.73,0,3.27-1.12,3.8-2.76l4.45-13.71C630.1,627.81,635.32,627.81,636.51,631.49z" fill="#ffffff"/>
	</g>
	<g>
		<path class="st0" d="M1319.59,631.49l4.45,13.71c0.54,1.65,2.07,2.76,3.8,2.76h14.41c3.88,0,5.49,4.96,2.35,7.24l-11.66,8.47    c-1.4,1.02-1.99,2.82-1.45,4.47l4.45,13.71c1.2,3.69-3.02,6.75-6.16,4.47l-11.66-8.47c-1.4-1.02-3.3-1.02-4.7,0l-11.66,8.47    c-3.14,2.28-7.35-0.79-6.16-4.47l4.45-13.71c0.54-1.65-0.05-3.45-1.45-4.47l-11.66-8.47c-3.14-2.28-1.52-7.24,2.35-7.24h14.41    c1.73,0,3.27-1.12,3.8-2.76l4.45-13.71C1313.18,627.81,1318.39,627.81,1319.59,631.49z" fill="#ffffff"/>
	</g>
	<g>
		<path class="st0" d="M1311.69,612.04c-1.99,0-3.74-1.45-4.06-3.48c-5.55-35.61-16.73-69.91-33.23-101.94    c-1.04-2.02-0.25-4.49,1.77-5.53c2.02-1.04,4.49-0.25,5.53,1.77c16.9,32.82,28.36,67.95,34.04,104.44    c0.35,2.24-1.19,4.34-3.43,4.69C1312.11,612.03,1311.9,612.04,1311.69,612.04z" fill="#ffffff"/>
	</g>
	<g>
		<path class="st0" d="M636.8,612.04c-0.21,0-0.42-0.02-0.64-0.05c-2.24-0.35-3.78-2.45-3.43-4.69    c5.68-36.48,17.14-71.62,34.04-104.44c1.04-2.02,3.52-2.81,5.53-1.77c2.02,1.04,2.81,3.52,1.77,5.53    c-16.5,32.03-27.68,66.33-33.23,101.94C640.54,610.59,638.79,612.04,636.8,612.04z" fill="#ffffff"/>
	</g>
	<g>
		<path class="st0" d="M670.44,821.25c-1.49,0-2.93-0.81-3.66-2.23c-16.9-32.82-28.36-67.96-34.04-104.44    c-0.35-2.24,1.19-4.34,3.43-4.69c2.25-0.35,4.34,1.19,4.69,3.43c5.55,35.61,16.73,69.91,33.23,101.94    c1.04,2.02,0.25,4.5-1.77,5.53C671.71,821.1,671.07,821.25,670.44,821.25z" fill="#ffffff"/>
	</g>
	<g>
		<path class="st0" d="M1278.06,821.25c-0.63,0-1.28-0.15-1.88-0.46c-2.02-1.04-2.81-3.52-1.77-5.53    c16.5-32.03,27.68-66.33,33.23-101.94c0.35-2.24,2.45-3.78,4.69-3.43c2.24,0.35,3.78,2.45,3.43,4.69    c-5.68,36.48-17.14,71.62-34.04,104.44C1280.99,820.44,1279.55,821.25,1278.06,821.25z" fill="#ffffff"/>
	</g>
	<g>
		<g>
			<path class="st0" d="M694.39,860.04l9.62,12.67c2.3,3.03,1.84,5.24-1.1,7.47l-8.77,6.66c-2.94,2.23-5.2,2.08-7.49-0.95     l-5.33-7.02l-10.87,8.26l-1.46,3.18l-5.29-6.97l3.45-0.55l25.78-19.57L694.39,860.04z M697.76,877.32     c1.75-1.33,2.21-2.92,0.81-4.76l-3.26-4.3l-10.65,8.09l3.26,4.3c1.4,1.84,3.09,1.8,4.8,0.5L697.76,877.32z" fill="#ffffff"/>
		</g>
		<g>
			<path class="st0" d="M713.64,916.01l-9.96,9.98l-1.01,3.35l-6.2-6.18l3.35-1.02l22.87-22.91l1.01-3.35l11.38,11.36     c2.69,2.68,2.54,4.94-0.07,7.55l-7.04,7.05c-2.37,2.38-4.51,2.89-6.85,1.41l-6.84,13.32l-0.46,3.89l-6.43-6.42l2.72-1.64     l5.44-9.74c1.2-2.14,1.24-3.51-0.47-5.22L713.64,916.01z M729.53,912.64c1.56-1.56,1.79-3.19,0.15-4.83l-3.94-3.93l-9.06,9.08     l3.94,3.93c1.64,1.63,3.27,1.4,4.83-0.16L729.53,912.64z" fill="#ffffff"/>
		</g>
		<g>
			<path class="st0" d="M754.4,946.54l5.09,3.86l3.41,0.79l-4.32,5.7l-1.68-3.07l-5.09-3.86l-7.78,10.27l5.7,4.32l6.07,1.01     l-4.29,5.66l-15.71-11.91l3.18-1.46l19.56-25.8l0.55-3.46l15.71,11.91l-4.29,5.66l-2.61-5.57l-5.7-4.32L754.4,946.54z" fill="#ffffff"/>
		</g>
		<g>
			<path class="st0" d="M793.98,997.6l-4.11-2.23l9.02-31.13l-13.65,25.11l-0.02,3.5l-7.35-4l2.97-1.89l15.46-28.44l-0.03-3.52     l10.4,5.65l-2.25,2.29l-7.75,24.99l16.85-20.05l0.7-3.13l10.5,5.71l-2.92,1.92l-15.46,28.44l-0.02,3.5l-7.69-4.18l2.97-1.89     l13.57-24.96L793.98,997.6z" fill="#ffffff"/>
		</g>
		<g>
			<path class="st0" d="M842.59,1019.46l-8.18-3.11l2.64-2.29l11.51-30.26l-0.45-3.47l8.18,3.11l-2.64,2.29l-11.51,30.26     L842.59,1019.46z" fill="#ffffff"/>
		</g>
		<g>
			<path class="st0" d="M885.92,1032.5l-8.65-2.16c-3.69-0.92-4.71-2.94-3.82-6.51l7.28-29.16l-0.91-3.4l8.49,2.12l-2.35,2.59     l-6.89,27.62c-0.41,1.66,0.13,2.87,1.84,3.3l3.58,0.89c1.71,0.43,2.76-0.39,3.18-2.04l6.89-27.62l-0.86-3.39l8.33,2.08     l-2.35,2.59l-7.28,29.17C891.52,1032.14,889.61,1033.42,885.92,1032.5z" fill="#ffffff"/>
		</g>
		<g>
			<path class="st0" d="M941.85,1041.4l-4.66-0.42l-4.08-32.15l-2.55,28.46l1.37,3.22l-8.33-0.75l1.98-2.92l2.89-32.24l-1.42-3.22     l11.79,1.06l-1.15,2.99l2.81,26.01l7.5-25.08l-0.6-3.15l11.9,1.07l-1.92,2.92l-2.89,32.24l1.37,3.22l-8.72-0.78l1.97-2.92     l2.54-28.29L941.85,1041.4z" fill="#ffffff"/>
		</g>
		<g>
			<path class="st0" d="M1028.78,1004.2l-3.43,0.52c-1.74,0.27-2.4,1.42-2.14,3.11l0.56,3.65c0.34,2.23,0.95,2.97,2.95,3.67     l9.73,3.53c2.12,0.74,3.29,2.23,3.62,4.35l1.3,8.49c0.56,3.65-0.71,5.57-4.47,6.14l-9.2,1.4c-3.76,0.57-5.48-0.89-6.04-4.54     l-1.44-9.47l5.65,1.98l0.78,5.12c0.26,1.69,1.23,2.6,2.92,2.34l4.03-0.61c1.74-0.27,2.4-1.42,2.14-3.11l-0.66-4.35     c-0.34-2.23-0.95-2.97-2.96-3.73l-9.77-3.47c-2.13-0.79-3.19-2.3-3.51-4.42l-1.18-7.73c-0.56-3.65,0.66-5.56,4.41-6.13l8.55-1.3     c3.76-0.57,5.54,0.88,6.09,4.53l1.29,8.44l-5.65-1.98l-0.62-4.08C1031.44,1004.85,1030.52,1003.93,1028.78,1004.2z" fill="#ffffff"/>
		</g>
		<g>
			<path class="st0" d="M1072.99,1007.64l6.13-1.8l2.66-2.27l2.01,6.87l-3.47-0.48l-6.13,1.8l3.62,12.36l6.87-2.01l4.43-4.28l2,6.82     l-18.92,5.54l0.72-3.42l-9.1-31.07l-2.45-2.49l18.92-5.54l2,6.82l-6.04-1.22l-6.87,2.01L1072.99,1007.64z" fill="#ffffff"/>
		</g>
		<g>
			<path class="st0" d="M1119.64,995.45l5.78,12.86l2.77,2.14l-7.98,3.59l0.24-3.49l-13.27-29.53l-2.77-2.13l14.66-6.59     c3.47-1.56,5.52-0.61,7.03,2.75l4.09,9.09c1.38,3.06,1.09,5.25-1.12,6.9l10.01,11.13l3.47,1.82l-8.29,3.72l-0.56-3.13l-7.16-8.55     c-1.57-1.89-2.83-2.41-5.04-1.42L1119.64,995.45z M1122.15,979.41c-0.9-2.01-2.35-2.81-4.46-1.86l-5.07,2.28l5.26,11.7l5.07-2.28     c2.11-0.95,2.47-2.56,1.57-4.57L1122.15,979.41z" fill="#ffffff"/>
		</g>
		<g>
			<path class="st0" d="M1173,987.02l-24.66-26.41l-3.27-1.6l7.52-4.69l0.51,3.32l20.29,22.84l-11.56-28.29l-2.75-1.92l7.38-4.61     l0,3.64l12.89,33.75L1173,987.02z" fill="#ffffff"/>
		</g>
		<g>
			<path class="st0" d="M1215.61,956.83l-6.84,5.46l-0.63-3.44l-20.19-25.3l-3.21-1.38l6.84-5.46l0.63,3.44l20.19,25.3     L1215.61,956.83z" fill="#ffffff"/>
		</g>
		<g>
			<path class="st0" d="M1226.22,904.29c-1.21-1.2-2.54-1.35-3.78-0.1l-2.79,2.81c-1.24,1.25-1.04,2.53,0.17,3.74l17.43,17.3     c1.21,1.2,2.5,1.39,3.74,0.14l2.79-2.81c1.24-1.25,1.08-2.57-0.13-3.78l-5.16-5.12l1.69-5.77l8.32,8.26     c2.62,2.6,2.74,4.89,0.07,7.59l-6.44,6.49c-2.68,2.7-4.93,2.55-7.55-0.05l-19.69-19.55c-2.62-2.6-2.78-4.86-0.11-7.55l6.44-6.49     c2.68-2.7,4.97-2.59,7.59,0.01l5.35,5.31l-1.69,5.77L1226.22,904.29z" fill="#ffffff"/>
		</g>
		<g>
			<path class="st0" d="M1259.9,880.73l3.86-5.09l0.79-3.41l5.7,4.32l-3.07,1.68l-3.86,5.09l10.27,7.78l4.32-5.7l1.01-6.07     l5.66,4.29l-11.9,15.71l-1.46-3.18l-25.8-19.55l-3.45-0.55l11.9-15.71l5.66,4.29l-5.57,2.61l-4.32,5.7L1259.9,880.73z" fill="#ffffff"/>
		</g>
	</g>
	<g>
		<g>
			<path class="st0" d="M680.93,429c3.35-3.43,6.78-3.54,11.09-0.32l11.84,8.85c4.81,3.59,5.58,7.19,1.88,12.14l-15.88,21.23     l-2.41-5.16l-42.18-31.54l-5.63-0.85l15.56-20.8c3.7-4.95,7.37-5.22,12.18-1.63l10.4,7.78C682.01,421.87,682.91,425,680.93,429z      M668.23,440.3l5.47-7.32c2.2-2.94,1.37-5.57-1.43-7.67l-6.96-5.2c-2.87-2.15-5.56-2.14-7.76,0.8l-5.47,7.32L668.23,440.3z      M687.12,435.98c-2.8-2.09-5.56-2.14-7.81,0.87l-5.63,7.53l17.57,13.14l5.63-7.53c2.25-3.01,1.5-5.59-1.37-7.74L687.12,435.98z" fill="#ffffff"/>
		</g>
		<g>
			<path class="st0" d="M754.19,392.62l5.63,1.66l-10.66,9.71l-1.72-5.22l-6.55-4.94l-10.73,9.77l4.37,6.93l5.03,2.2l-10.53,9.59     l-1.06-5.82l-30.29-50.44l9.14-8.32L754.19,392.62z M726.3,397.78l9.14-8.32l-27.85-21.41L726.3,397.78z" fill="#ffffff"/>
		</g>
		<g>
			<path class="st0" d="M776.69,348.58l11.91,19.6l4.9,2.89l-12.17,7.39l-0.31-5.68l-27.35-45.01l-4.9-2.89l22.35-13.58     c5.28-3.21,8.79-2.09,11.91,3.04l8.42,13.86c2.84,4.67,2.81,8.25-0.43,11.37l18.4,15.97l5.97,2.24l-12.63,7.67l-1.53-4.94     l-13.28-12.37c-2.92-2.73-5.06-3.32-8.42-1.27L776.69,348.58z M777.53,322.18c-1.86-3.06-4.35-4.06-7.57-2.11l-7.73,4.7     l10.84,17.84l7.73-4.7c3.22-1.95,3.48-4.63,1.62-7.69L777.53,322.18z" fill="#ffffff"/>
		</g>
		<g>
			<path class="st0" d="M855.71,306.2c4.67-1.04,7.62,0.75,9.46,5.79l5.07,13.88c2.06,5.64,0.74,9.07-5.07,11.2l-24.9,9.1l0.8-5.63     l-18.07-49.47l-4.25-3.79l24.4-8.91c5.81-2.12,9.03-0.34,11.09,5.29l4.46,12.2C860.52,300.82,859.56,303.94,855.71,306.2z      M838.9,308.72l8.58-3.13c3.45-1.26,4.2-3.92,3-7.2l-2.98-8.16c-1.23-3.37-3.48-4.83-6.93-3.57l-8.58,3.13L838.9,308.72z      M857.08,315.43c-1.2-3.28-3.48-4.83-7.01-3.54l-8.83,3.23l7.53,20.61l8.83-3.23c3.53-1.29,4.31-3.86,3.08-7.23L857.08,315.43z" fill="#ffffff"/>
		</g>
		<g>
			<path class="st0" d="M909.02,290.17l10.26-1.66l4.76-3.13l1.86,11.49l-5.5-1.47l-10.26,1.66l3.35,20.69l11.49-1.86l8.01-6.02     l1.85,11.4l-31.65,5.13l1.85-5.38l-8.43-51.99l-3.45-4.52l31.65-5.13l1.85,11.41l-9.5-3.18l-11.49,1.86L909.02,290.17z" fill="#ffffff"/>
		</g>
		<g>
			<path class="st0" d="M977.77,291.41l-0.64,22.92l2.55,5.09l-14.24-0.4l2.83-4.94l1.47-52.65l-2.55-5.09l26.15,0.73     c6.18,0.17,8.52,3.02,8.35,9.02l-0.45,16.21c-0.15,5.46-2.12,8.45-6.53,9.32l6.78,23.4l3.8,5.12l-14.77-0.41l1.39-4.98     l-4.44-17.6c-0.97-3.88-2.44-5.53-6.38-5.65L977.77,291.41z M992.81,269.7c0.1-3.58-1.45-5.78-5.21-5.88l-9.04-0.25l-0.58,20.86     l9.04,0.25c3.76,0.11,5.43-2,5.53-5.58L992.81,269.7z" fill="#ffffff"/>
		</g>
		<g>
			<path class="st0" d="M1111.71,288.03l-5.31-1.91c-2.7-0.97-4.54,0.17-5.48,2.79l-2.04,5.65c-1.25,3.45-0.94,4.99,1.37,7.54     l11.17,12.6c2.46,2.69,2.98,5.74,1.79,9.03l-4.74,13.14c-2.04,5.65-5.34,7.41-11.15,5.31l-14.24-5.13     c-5.81-2.1-7.15-5.53-5.11-11.17l5.29-14.66l6.54,7.21l-2.86,7.92c-0.94,2.61-0.26,4.67,2.36,5.61l6.24,2.25     c2.7,0.97,4.54-0.17,5.48-2.79l2.43-6.74c1.25-3.45,0.94-4.99-1.34-7.63l-11.28-12.54c-2.43-2.78-2.78-5.76-1.59-9.05l4.31-11.96     c2.04-5.65,5.25-7.44,11.07-5.34l13.23,4.77c5.81,2.1,7.23,5.56,5.2,11.2l-4.71,13.06l-6.54-7.21l2.28-6.32     C1115.01,291.03,1114.41,289,1111.71,288.03z" fill="#ffffff"/>
		</g>
		<g>
			<path class="st0" d="M1165.54,377.34l-12.22-7.31l4.88-2.92l11.73-19.6l-12.45-7.45l-11.73,19.6l-0.27,5.68l-12.22-7.32     l4.88-2.92l27.05-45.19l0.27-5.68l12.22,7.32l-4.88,2.92l-11.78,19.67l12.45,7.45l11.78-19.67l0.27-5.68l12.22,7.31l-4.96,2.88     l-27.05,45.19L1165.54,377.34z" fill="#ffffff"/>
		</g>
		<g>
			<path class="st0" d="M1250.53,365.75c4.59,4.14,4.59,7.88,0.57,12.34l-30.23,33.52c-4.02,4.46-7.74,4.84-12.33,0.7l-11.24-10.14     c-4.59-4.14-4.53-7.82-0.51-12.28l30.23-33.52c4.02-4.46,7.67-4.9,12.26-0.76L1250.53,365.75z M1242.65,367.94l-4.79-4.32     c-2.13-1.92-4.2-1.5-6.06,0.57l-26.75,29.67c-1.86,2.06-2.07,4.17,0.06,6.09l4.79,4.32c2.13,1.92,4.27,1.56,6.13-0.51     l26.75-29.67C1244.64,372.02,1244.78,369.86,1242.65,367.94z" fill="#ffffff"/>
		</g>
		<g>
			<path class="st0" d="M1286.49,403.64l15.62,20.64c3.73,4.93,2.98,8.53-1.81,12.15l-14.28,10.81c-4.79,3.62-8.46,3.37-12.19-1.56     l-8.65-11.43l-17.71,13.41l-2.38,5.17l-8.59-11.36l5.62-0.88l42-31.78L1286.49,403.64z M1291.93,431.75     c2.86-2.16,3.6-4.75,1.33-7.74l-5.3-7l-17.36,13.14l5.3,7c2.27,3,5.03,2.93,7.81,0.83L1291.93,431.75z" fill="#ffffff"/>
		</g>
	</g>
</g>
</svg>